<?xml version="1.0" encoding="UTF-8"?>
<svg width="230px" height="215px" viewBox="0 0 230 215" version="1.1" xmlns="http://www.w3.org/2000/svg" xmlns:xlink="http://www.w3.org/1999/xlink">
    <!-- Generator: Sketch 42 (36781) - http://www.bohemiancoding.com/sketch -->
    <title>Icon</title>
    <desc>Created with Sketch.</desc>
    <defs>
        <path d="M151.461444,103.30392 C149.718327,104.777322 147.709954,106.146856 146.137359,107.920325 C145.080121,109.112896 144.147933,110.840201 144.034251,112.394391 C143.715943,116.618402 143.844782,120.880883 143.829624,125.127976 C143.825835,126.66293 144.731498,127.236134 146.152517,127.239981 C148.111629,127.243828 148.994555,126.589837 149.358336,124.150837 C149.797905,121.211725 151.287133,118.934299 153.325821,117.014643 C154.712736,115.710509 156.334592,114.641042 157.926134,113.571574 C161.238055,111.351853 163.481371,108.335801 164.875864,104.581125 C165.542796,102.792268 166.349935,101.041881 167.282123,99.3799752 C169.354916,95.694545 170.150687,92.0475848 168.096841,87.9966892 C167.316228,86.4617344 167.141916,84.5882433 166.804661,82.8455503 C166.62277,81.9030342 166.80845,80.879731 166.603823,79.9449089 C165.898998,76.7442013 165.360905,73.1703342 162.19677,71.6007564 C160.002716,70.5159011 158.619591,69.0155694 157.262991,67.1420783 C155.148515,64.2183549 152.367107,61.8062831 148.702773,61.8062831 C144.632974,61.8101301 141.036848,60.840685 137.421776,59.047981 C134.928361,57.8092456 131.877907,57.4437801 129.539857,59.3018833 C127.353382,61.0445763 125.447322,60.9753302 122.946328,60.3559625 C119.285783,59.4519164 115.431979,59.3018833 112.616467,62.548755 C111.206816,64.1760379 109.668326,64.6261374 107.648584,64.8492636 C103.112691,65.3532212 99.4294098,67.3267345 97.932603,72.147031 C97.3755635,73.939735 96.3259041,75.1900115 94.7495203,76.3248778 C90.3310983,79.5101974 88.96692,84.3189529 89.4254355,89.4854799 C89.7626907,93.2632382 91.8620095,96.1138685 95.4581351,97.8911845 C99.5771958,99.9300968 103.813727,99.8031457 108.088153,99.2530241 C110.411045,98.9568047 112.483838,99.0991439 114.719575,99.9108618 C116.549848,100.576394 118.861372,101.057269 120.631014,100.507148 C125.606476,98.9760398 129.206391,101.357335 132.730518,104.115638 C134.901835,105.819861 135.985599,108.154992 135.906022,111.094104 C135.773394,115.579711 135.871918,120.073012 135.879496,124.562466 C135.883286,125.97047 135.97802,127.293839 137.868923,127.351544 C139.577935,127.409249 140.180447,126.832199 140.222131,124.57016 C140.28655,121.050151 140.404021,117.518601 140.172869,114.01398 C139.888665,109.716876 141.510521,106.50078 144.792128,103.969451 C145.550005,103.384707 146.25862,102.719175 146.936919,102.034408 C150.226105,98.7182905 151.450076,94.5712197 150.881668,90.0586835 C150.680831,88.4737177 149.487175,86.6233086 148.194995,85.6538635 C145.447692,83.5995631 142.033456,83.0571355 138.679851,82.8724793 C135.962863,82.7262931 134.431952,84.2304718 134.344796,87.0541731 C134.287955,88.8430301 134.511529,90.6895923 134.951097,92.4245912 C135.436138,94.3442464 134.659315,95.0713303 132.787359,95.6406869 C132.120427,94.3942575 131.381497,93.3055553 130.919192,92.1052899 C129.892269,89.4393158 129.350387,89.0546154 126.728134,89.8432513 C125.705,90.1510116 124.772811,90.8857895 123.749678,91.0165876 C123.101693,91.1012217 122.165715,90.5780291 121.729936,90.0279075 C121.479836,89.7086061 121.76783,88.5352698 122.173294,88.1890394 C123.071378,87.4350265 124.143774,86.8233528 125.238906,86.4078763 C126.576558,85.9039188 128.016524,85.7038745 129.388281,85.2960921 C130.922982,84.8382985 132.874515,82.1684775 132.791148,80.5835117 C132.711571,78.9292998 131.699806,77.9213846 130.210578,77.4635911 C127.315488,76.5749331 124.848599,78.28685 122.264239,79.0408629 C121.339629,79.3140002 120.615857,80.5642766 119.960293,81.4875577 C116.277012,86.6502376 111.650174,90.1625526 105.083171,90.1202356 C103.067219,90.1086946 101.305155,90.3010448 99.9712917,92.0552788 C99.6567728,92.4707553 99.0087881,92.6284825 98.6222709,92.8439147 C97.0875703,92.0398908 96.7844196,91.0396697 97.4892451,89.7278411 C98.5919559,87.6696938 100.126656,86.3578653 102.616282,86.4309584 C104.454133,86.4809694 106.295774,86.3386303 108.800557,86.2616902 C107.815317,84.8998506 107.379538,84.0458156 106.720185,83.4456829 C105.931993,82.7262931 104.821703,82.3531337 104.10551,81.5875798 C103.631837,81.0836222 103.340054,80.0987891 103.465104,79.4217163 C103.540892,79.0293219 104.620866,78.5522933 105.208221,78.6023044 C106.113883,78.6753975 107.102913,78.9946988 107.841843,79.5217384 C108.997605,80.3449974 109.918425,81.5029457 111.040083,82.3800627 C111.638806,82.8455503 112.862777,83.480306 113.109087,83.2571797 C114.477054,81.9915153 115.867758,80.6258287 116.803736,79.0254749 C117.663927,77.5520722 116.59532,76.2902547 115.409243,75.3015746 C114.859782,74.8399341 114.079169,74.3975286 113.908647,73.7973959 C113.677494,72.9779839 113.711599,71.9046697 114.082958,71.1737389 C114.242113,70.8582845 115.61387,70.8967546 116.265644,71.1775859 C117.118255,71.5468983 117.936762,72.197042 118.524117,72.9318199 C120.013345,74.805311 121.707199,75.2746456 123.893674,74.2898124 C124.636393,73.9551231 125.511741,73.878183 126.341616,73.7897019 C128.050629,73.6088927 129.232917,72.8125628 129.793745,71.1044928 C129.979425,70.5389831 130.214367,69.8696044 130.642567,69.531068 C131.218554,69.0771215 132.256845,68.4616008 132.650941,68.692421 C133.325451,69.0886625 133.711969,70.0619546 134.098486,70.8544375 C134.212167,71.0852578 133.984804,71.5699803 133.799124,71.8661997 C132.707782,73.6204337 133.511131,74.801464 134.860152,75.9017073 C136.027282,76.8519174 137.001154,78.1522049 138.297124,78.7869606 C139.471833,79.3601643 140.574543,78.5330583 141.14674,77.2558528 C141.593888,76.2787137 141.953879,75.2130935 142.598075,74.3859876 C142.965645,73.916653 144.011515,73.4780945 144.424558,73.6858328 C145.042227,74.0012871 145.523479,74.8476281 145.76221,75.5708649 C145.925154,76.0594345 145.648529,76.7557423 145.447692,77.3135579 C144.830022,79.0331689 145.375693,79.983379 147.069548,80.6566047 C149.52128,81.6298969 151.844172,82.8724793 153.318242,85.2960921 C154.091277,86.5617565 155.209145,86.6386966 156.406591,85.8308257 C157.005313,85.4307372 157.596457,85.0191077 158.198969,84.6267133 C160.491547,83.1340756 160.510494,83.1417696 162.181612,86.100116 C161.435103,86.7618007 160.753014,87.7774099 159.839773,88.1044053 C155.682818,89.597043 154.223905,92.5669304 154.13296,96.8794223 C154.095066,98.5182462 154.102645,99.6608065 155.413772,100.614864 C157.009103,101.776659 158.229284,103.184663 158.426332,105.362067 C155.046202,108.616633 154.227695,103.704008 151.461444,103.30392 M77.8071835,127.432331 C74.9878817,124.600936 74.8893577,124.554772 76.4126901,121.296359 C77.2274077,119.549819 76.9545721,118.218756 75.5752362,117.12236 C74.2641093,116.079821 72.8317221,115.191163 71.4334393,114.267882 C68.0495192,112.021232 67.6971065,110.428572 70.1412593,107.185547 C71.1492355,105.854484 72.4755199,104.769628 73.6502291,103.561669 C77.3259317,99.7992987 80.4673312,95.729168 80.9637406,90.1894817 C81.0622645,89.1046264 81.096369,88.0005362 81.0130026,86.9195279 C79.9595537,73.3049793 85.0108029,62.8334333 96.5040052,55.601065 C107.879737,48.4456368 120.142184,44.275484 133.58313,45.6873347 C149.339389,47.3453936 163.280534,53.3967315 173.095039,66.5650276 C180.006875,75.8324612 182.701128,86.4040293 180.082663,98.1373928 C178.426702,105.546723 175.1792,111.95968 170.321209,117.672481 C168.142313,120.234586 166.107414,122.973653 164.383244,125.862754 C160.847749,131.779446 160.991745,138.150086 163.098643,144.470714 C164.553767,148.825523 166.444669,153.026452 168.134735,157.296627 C168.316625,157.746726 168.517463,158.189132 168.650091,158.654619 C169.51786,161.628354 168.831981,162.678586 165.751212,162.867089 C160.737857,163.174849 155.716923,163.332577 150.711146,163.678807 C140.938324,164.363574 131.169292,165.156057 121.39647,165.867752 C117.118255,166.17936 116.671108,165.890834 115.503978,161.863021 C114.730943,159.197047 114.079169,156.492603 113.461499,153.784312 C112.692254,150.410489 111.153764,148.890922 107.656163,149.190988 C103.025535,149.58723 98.425223,150.387407 93.8286999,151.114491 C90.4637267,151.645377 87.1669625,151.676153 83.9080921,150.568216 C80.3309134,149.352563 78.9061049,147.294415 79.2547283,143.443564 C79.42904,141.516215 79.8648191,139.611947 80.2323894,137.70768 C80.573434,135.945752 80.5165932,134.226141 79.1296786,132.979712 C77.3827725,131.413981 76.9128888,129.613583 77.8071835,127.432331" id="path-1"></path>
        <filter x="-50%" y="-50%" width="200%" height="200%" filterUnits="objectBoundingBox" id="filter-2">
            <feGaussianBlur stdDeviation="1.5" in="SourceAlpha" result="shadowBlurInner1"></feGaussianBlur>
            <feOffset dx="0" dy="1" in="shadowBlurInner1" result="shadowOffsetInner1"></feOffset>
            <feComposite in="shadowOffsetInner1" in2="SourceAlpha" operator="arithmetic" k2="-1" k3="1" result="shadowInnerInner1"></feComposite>
            <feColorMatrix values="0 0 0 0 0   0 0 0 0 0   0 0 0 0 0  0 0 0 0.5 0" type="matrix" in="shadowInnerInner1"></feColorMatrix>
        </filter>
        <path d="M21.585227,85.2914757 C23.5557067,83.2833394 24.9047275,84.7759771 26.2613271,86.1532047 C32.9420114,92.9277794 39.6189064,99.7100482 47.0271525,107.230942 C42.4230507,108.781285 38.4745123,107.981108 34.6586024,108.154223 C28.2621219,108.446595 28.2355962,108.442748 28.1711767,114.586414 C28.0650739,124.038504 30.5395418,132.99433 33.8969362,141.623161 C47.5576663,176.715535 73.1208521,198.481886 109.468625,203.859999 C168.272289,212.558076 210.690656,169.537025 218.386895,124.469369 C224.999371,85.7608102 206.85201,43.9977303 173.687319,24.1164115 C159.90154,15.849199 145.206308,10.609579 129.078689,10.0863864 C126.035813,9.99021132 123.352929,9.8863422 123.315035,5.68541339 C123.280931,1.64990576 124.122174,0.395782322 128.040397,0.27267818 C136.301255,0.0110818805 144.414326,1.25366431 152.246984,3.78884021 C194.91166,17.588045 221.293353,46.8599016 228.443921,91.6197979 C233.400436,122.611265 225.306311,151.340694 205.260469,175.961523 C188.954748,195.985181 168.097978,208.903421 143.042569,213.031257 C113.739261,217.855401 85.902445,212.985093 61.3510248,194.507931 C39.3763858,177.961965 25.757339,156.049428 19.7549544,129.047304 C18.7015056,124.292406 19.0728652,119.479804 18.4135124,114.736447 C17.6366886,109.142903 16.7689196,108.473524 11.209893,108.161917 C7.78428969,107.969567 4.28289869,108.781285 0.0880503802,107.184778 C7.45461327,99.6831192 14.5180254,92.4892209 21.585227,85.2914757 Z" id="path-3"></path>
        <filter x="-50%" y="-50%" width="200%" height="200%" filterUnits="objectBoundingBox" id="filter-4">
            <feGaussianBlur stdDeviation="1.5" in="SourceAlpha" result="shadowBlurInner1"></feGaussianBlur>
            <feOffset dx="0" dy="1" in="shadowBlurInner1" result="shadowOffsetInner1"></feOffset>
            <feComposite in="shadowOffsetInner1" in2="SourceAlpha" operator="arithmetic" k2="-1" k3="1" result="shadowInnerInner1"></feComposite>
            <feColorMatrix values="0 0 0 0 0   0 0 0 0 0   0 0 0 0 0  0 0 0 0.5 0" type="matrix" in="shadowInnerInner1"></feColorMatrix>
        </filter>
    </defs>
    <g id="Symbols" stroke="none" stroke-width="1" fill="none" fill-rule="evenodd">
        <g id="brainLogo">
            <g id="Icon">
                <g id="Fill-10">
                    <use fill-opacity="0.267266757" fill="#9B9B9B" fill-rule="evenodd" xlink:href="#path-1"></use>
                    <use fill="black" fill-opacity="1" filter="url(#filter-2)" xlink:href="#path-1"></use>
                </g>
                <g id="Fill-5">
                    <use fill-opacity="0.267266757" fill="#9B9B9B" fill-rule="evenodd" xlink:href="#path-3"></use>
                    <use fill="black" fill-opacity="1" filter="url(#filter-4)" xlink:href="#path-3"></use>
                </g>
            </g>
        </g>
    </g>
</svg>