<?xml version="1.0" encoding="UTF-8"?>
<svg width="370px" height="211px" viewBox="0 0 370 211" version="1.1" xmlns="http://www.w3.org/2000/svg" xmlns:xlink="http://www.w3.org/1999/xlink">
    <!-- Generator: Sketch 41.2 (35397) - http://www.bohemiancoding.com/sketch -->
    <title>new</title>
    <desc>Created with Sketch.</desc>
    <defs></defs>
    <g id="Page-1" stroke="none" stroke-width="1" fill="none" fill-rule="evenodd">
        <g id="new" fill="#FFFFFF">
            <path d="M66.2465,167.0277 C66.2448,179.2659 66.2465,191.5042 66.2448,203.7424 C66.2448,204.7618 66.236,205.7813 66.2115,206.8007 C66.1888,207.8026 65.7621,208.4845 64.6693,208.488 C60.7368,208.502 56.8025,208.5038 52.8699,208.488 C51.7473,208.4828 51.4029,207.7344 51.3906,206.7552 C51.3749,205.2986 51.3679,203.8421 51.3662,202.3855 C51.3644,193.7895 51.3662,185.1936 51.3644,176.5976 C51.3644,175.7233 51.3329,174.849 51.3592,173.9765 C51.4029,172.5794 50.9045,171.7348 49.3571,171.8187 C48.7748,171.852 48.1908,171.8083 47.6085,171.8083 C38.1382,171.8083 28.668,171.8083 19.1994,171.8118 C18.4703,171.8118 17.7411,171.8257 17.0137,171.8485 C15.9453,171.8799 15.454,172.4919 15.4243,173.5096 C15.3928,174.529 15.3876,175.5485 15.3858,176.5679 C15.3841,185.7461 15.3858,194.9261 15.3806,204.1044 C15.3806,205.122 15.3736,206.1432 15.3124,207.1591 C15.2599,208.0159 14.7074,208.4758 13.8855,208.481 C9.9512,208.5038 6.0187,208.5038 2.0862,208.4828 C1.0195,208.4758 0.5544,207.7991 0.5264,206.7937 C0.4985,205.7743 0.4915,204.7548 0.4897,203.7354 C0.488,179.2589 0.4862,154.7824 0.488,130.3059 C0.488,125.1791 0.1383,125.5306 5.1549,125.5236 C7.7778,125.5218 10.4006,125.5655 13.0217,125.5148 C14.6234,125.4834 15.468,126.0272 15.3998,127.7722 C15.3211,129.8093 15.3876,131.8499 15.3876,133.8905 C15.3876,141.175 15.3578,148.4596 15.4015,155.7441 C15.419,158.6415 15.4925,158.7202 18.3321,158.7307 C28.3847,158.7674 38.4372,158.7674 48.4898,158.7342 C51.27,158.7237 51.3364,158.645 51.3504,155.7004 C51.3871,147.3965 51.3627,139.0925 51.3627,130.7885 C51.3627,129.7674 51.4274,128.7444 51.3557,127.7303 C51.2315,125.9502 52.174,125.4921 53.7477,125.5166 C57.098,125.5638 60.45,125.4816 63.8003,125.5481 C66.1066,125.5935 66.1871,125.6792 66.229,128.1289 C66.2902,131.7695 66.2465,135.4135 66.2465,139.0558 L66.2465,167.0277" id="Fill-1"></path>
            <path d="M369.6016,155.9711 C369.6016,164.4219 369.801,172.8763 369.5474,181.3184 C369.2869,189.9581 366.1115,197.456 359.4634,203.2332 C355.9925,206.2495 351.8921,208.1834 347.4647,209.1976 C340.5701,210.7783 333.5391,210.913 326.7004,209.1556 C315.7911,206.3509 308.7915,199.3217 305.9134,188.3581 C305.2122,185.6881 304.8135,182.9725 304.817,180.1731 C304.8415,163.128 304.7821,146.0829 304.7523,129.0361 C304.7506,128.4538 304.7663,127.8716 304.7856,127.2893 C304.8153,126.2856 305.2507,125.5949 306.3261,125.5879 C310.2586,125.5634 314.1946,125.5704 318.1272,125.5704 C319.2235,125.5722 319.6624,126.2122 319.6747,127.2316 C319.6886,128.3961 319.7009,129.5624 319.7009,130.727 C319.7009,145.735 319.6991,160.7429 319.7009,175.7492 C319.7009,178.5137 319.9527,181.224 320.4982,183.9692 C322.5336,194.1966 331.8307,198.603 341.0037,196.844 C347.9613,195.5098 352.331,191.2608 353.9012,184.2402 C354.41,181.9584 354.779,179.6905 354.779,177.3386 C354.7755,161.897 354.7965,146.4536 354.8507,131.0102 C354.8734,124.9095 354.0918,125.5967 360.0946,125.546 C362.1352,125.5285 364.1758,125.518 366.2146,125.5494 C369.6226,125.6002 369.6576,125.6141 369.6943,128.8717 C369.7328,132.6609 369.703,136.4483 369.703,140.2357 L369.703,155.9711 L369.6016,155.9711 Z" id="Fill-3"></path>
            <path d="M253.4188,159.9122 C253.4188,149.9331 253.4031,141.6291 253.4258,133.3252 C253.4363,129.578 253.4713,129.578 257.0454,128.917 C259.9008,128.3907 262.744,127.7892 265.6151,127.3573 C267.5071,127.0723 267.9792,127.4867 268.0089,129.4346 C268.0754,133.9512 267.9914,138.4677 268.0579,142.9843 C268.0963,145.5372 268.2415,145.6841 270.8346,145.7121 C276.2255,145.7698 281.6163,145.7016 287.0071,145.747 C289.9412,145.7733 289.9762,145.8292 290.0392,148.6322 C290.0916,150.963 289.9989,153.2956 290.0601,155.6265 C290.1039,157.3366 289.303,157.9136 287.6786,157.8961 C283.454,157.8436 279.2277,157.8804 275.0032,157.8839 C273.5466,157.8839 272.0866,157.8401 270.6318,157.8996 C268.2712,157.994 268.1051,158.1007 268.0614,160.3966 C267.9862,164.184 268.0264,167.9731 268.0369,171.7605 C268.0526,176.5691 268.0719,181.3759 268.1313,186.1827 C268.1471,187.3438 268.203,188.5258 268.4548,189.6502 C269.7033,195.2438 272.16,197.2075 277.8744,197.3491 C281.5359,197.4383 285.1519,197.2757 288.6001,195.8366 C289.7786,195.3435 290.5393,195.6722 290.8033,197.0186 C291.3016,199.582 291.7947,202.1507 292.405,204.6914 C292.7652,206.1951 292.0168,206.9051 290.8033,207.2932 C288.8659,207.9087 286.918,208.5295 284.9351,208.9631 C279.7751,210.0875 274.5486,210.077 269.3938,209.138 C259.0213,207.2478 255.0572,199.2498 254.1515,191.3952 C252.8768,180.3565 253.7073,169.288 253.4188,159.9122" id="Fill-4"></path>
            <path d="M129.2302,48.9606 C132.6294,45.5509 135.8888,42.2811 139.1499,39.0095 C140.0591,38.0967 140.6816,38.7752 141.3076,39.4012 C144.3903,42.4804 147.4713,45.5631 150.8898,48.9816 C148.7653,49.6863 146.9432,49.3226 145.1824,49.4013 C142.2308,49.5342 142.2186,49.5324 142.1889,52.3249 C142.1399,56.6211 143.2817,60.6918 144.831,64.6138 C151.1346,80.5643 162.9304,90.4577 179.7027,92.9022 C206.8371,96.8557 226.4106,77.3015 229.9619,56.817 C233.0132,39.2228 224.6393,20.2403 209.3358,11.2037 C202.9745,7.446 196.1935,5.0645 188.7516,4.8267 C187.3475,4.783 186.1095,4.7358 186.092,2.8263 C186.0763,0.9921 186.4645,0.422 188.2725,0.3661 C192.0844,0.2472 195.8281,0.812 199.4424,1.9643 C219.1295,8.2364 231.3031,21.5413 234.6026,41.8859 C236.8898,55.9724 233.1548,69.0307 223.9049,80.2216 C216.3808,89.3229 206.7566,95.1946 195.1951,97.0708 C181.6734,99.2635 168.8284,97.0498 157.4994,88.6514 C147.3594,81.1308 141.075,71.171 138.3053,58.8978 C137.8192,56.7365 137.9906,54.5491 137.6863,52.3931 C137.3279,49.8506 136.9274,49.5464 134.3623,49.4048 C132.7816,49.3173 131.1659,49.6863 129.2302,48.9606" id="Fill-5"></path>
            <path d="M221.0703,177.0819 C221.0685,168.3391 221.0668,159.598 221.0703,150.8551 C221.0703,149.8357 221.0825,148.8163 221.1157,147.7969 C221.1542,146.6183 221.7015,145.8175 222.9482,145.8035 C226.7339,145.7633 230.5213,145.7633 234.3087,145.779 C235.141,145.7843 235.6586,146.2914 235.7198,147.1237 C235.7845,147.9945 235.7705,148.8705 235.7723,149.7448 C235.7723,167.9579 235.7723,186.1693 235.7705,204.3824 C235.7705,205.1098 235.7373,205.839 235.76,206.5681 C235.8002,207.7886 235.3386,208.502 234.0149,208.4985 C230.2258,208.4828 226.4384,208.4968 222.651,208.4775 C221.5773,208.4723 221.1087,207.8288 221.0982,206.8042 C221.086,205.6379 221.072,204.4733 221.072,203.307 C221.0703,194.5659 221.0703,185.8231 221.0703,177.0819" id="Fill-6"></path>
            <path d="M228.3651,136.0844 C223.0757,136.0809 219.8898,133.1031 219.5156,127.4482 C219.2131,122.8792 223.7227,118.562 228.4193,118.5812 C233.067,118.5987 237.4629,122.7988 237.3003,127.5112 C237.1377,132.3162 234.0812,136.1806 228.3651,136.0844" id="Fill-7"></path>
            <path d="M189.2613,187.9848 C186.3884,194.2989 180.0009,198.2349 173.157,197.6194 C170.9887,197.4236 168.8153,197.4114 166.6558,197.1666 C164.3354,196.9043 164.1763,196.8099 164.1064,194.5559 C164.0312,192.0887 164.0854,189.618 164.0854,187.1472 C164.0854,179.3014 164.1745,171.4556 164.0329,163.6132 C163.9892,161.2159 164.7463,159.8276 166.9705,158.9463 C171.2405,157.2519 175.5315,156.3094 180.118,157.4705 C184.7255,158.6368 187.7523,161.5639 189.4047,165.8811 C190.7598,169.4237 191.5205,173.1202 191.2319,176.8604 C191.4435,180.7894 190.8508,184.4877 189.2613,187.9848 M202.6081,160.0741 C198.5794,150.8207 191.4016,145.874 181.4697,144.8178 C175.5665,144.1883 169.9413,145.4176 164.0871,148.0439 L164.0871,143.3753 C164.0871,135.7987 164.0889,128.2239 164.0871,120.6473 C164.0871,119.6279 164.0644,118.6085 164.0626,117.5891 C164.0591,116.2497 163.2933,115.7653 162.0868,115.9419 C159.6457,116.3004 157.2047,116.6728 154.7795,117.1327 C149.9989,118.0437 149.9971,118.0717 149.9954,122.7614 C149.9954,149.1298 149.9971,175.4983 149.9989,201.8667 C149.9989,202.8861 150.0426,203.9073 150.0146,204.925 C149.9796,206.1542 150.6493,206.8099 151.7317,207.1142 C152.5675,207.352 153.4261,207.5076 154.2706,207.7104 C159.0914,208.868 164.0084,209.2107 168.9237,209.7335 C175.1416,210.3963 181.0867,209.779 186.92,207.8206 C195.7275,204.862 201.3789,198.5112 204.0857,189.9152 C207.2314,179.9187 206.8572,169.8311 202.6081,160.0741" id="Fill-8"></path>
            <path d="M117.896,189.8136 L117.8802,189.8136 C117.8802,191.8525 117.8663,193.8913 117.8855,195.9301 C117.8977,197.392 117.1493,198.0582 115.7435,198.0564 C111.6658,198.0547 107.5672,198.3065 103.521,197.9515 C100.4138,197.6787 97.4814,196.3306 96.4025,192.9943 C95.4391,190.0182 95.2887,187.0124 97.4587,184.3126 C98.6215,182.8648 100.1917,182.1357 101.8319,181.5691 C106.0686,180.1038 110.4453,180.242 114.78,180.9117 C117.7946,181.3768 117.8225,181.5919 117.889,184.5697 C117.9292,186.3165 117.896,188.0651 117.896,189.8136 M131.8111,170.095 C131.8059,167.0385 131.5558,164.024 130.9735,160.9972 C129.4435,153.0272 124.7888,147.9896 117.0794,145.8161 C110.5205,143.9644 103.8077,144.4417 97.1422,145.0887 C94.5543,145.337 91.9926,145.9787 89.4537,146.5925 C87.3869,147.0925 87.1998,147.5209 87.5758,149.7067 C87.9464,151.8487 88.2944,154.0012 88.756,156.1239 C89.3121,158.6856 89.354,158.6471 91.7408,158.14 C97.2751,156.9632 102.8093,155.977 108.5201,156.8688 C115.2941,157.9284 118.2562,162.9399 117.8365,169.4288 C117.7683,170.4814 117.2333,171.0095 116.1824,170.9903 C115.6001,170.9798 114.9951,171.02 114.4391,170.8801 C109.2353,169.5704 104.0316,170.0093 98.861,170.9885 C92.8547,172.1303 87.2907,174.2007 83.9597,179.8188 C81.3368,184.2444 80.8647,189.0076 81.7862,194.0924 C82.727,199.2752 85.0054,203.3756 89.6006,206.0719 C93.3216,208.2558 97.3747,209.3329 101.65,209.4519 C110.2372,209.6897 118.8,209.7106 127.2788,207.8379 C131.7482,206.8482 131.8059,207.0668 131.8129,202.4366 C131.8216,196.7555 131.8146,191.0726 131.8129,185.3915 C131.8129,180.2927 131.8199,175.1938 131.8111,170.095" id="Fill-9"></path>
            <path d="M199.0799,47.1967 C198.2755,47.8664 197.3488,48.4889 196.6231,49.2949 C196.1353,49.837 195.7051,50.6221 195.6527,51.3285 C195.5058,53.2485 195.5653,55.1859 195.5583,57.1163 C195.5565,57.814 195.9744,58.0745 196.6301,58.0763 C197.5341,58.078 197.9416,57.7808 198.1094,56.6722 C198.3123,55.3363 198.9994,54.3011 199.9402,53.4286 C200.5802,52.8358 201.3285,52.3497 202.0629,51.8636 C203.5912,50.8547 204.6263,49.4838 205.2698,47.7772 C205.5776,46.9641 205.95,46.1685 206.3802,45.4131 C207.3366,43.738 207.7038,42.0803 206.7561,40.2391 C206.3959,39.5414 206.3155,38.6899 206.1598,37.8978 C206.0759,37.4694 206.1616,37.0042 206.0672,36.5793 C205.7419,35.1245 205.4936,33.5001 204.0336,32.7867 C203.0212,32.2936 202.3829,31.6116 201.7569,30.7601 C200.7812,29.4312 199.4978,28.3348 197.8069,28.3348 C195.929,28.3366 194.2696,27.8959 192.6014,27.0811 C191.4509,26.5181 190.0433,26.3519 188.9644,27.1965 C187.9555,27.9886 187.0759,27.9571 185.9219,27.6756 C184.2328,27.2647 182.4545,27.1965 181.1553,28.6723 C180.5048,29.4119 179.7949,29.6165 178.8629,29.7179 C176.7699,29.947 175.0702,30.844 174.3796,33.035 C174.1225,33.8498 173.6382,34.4181 172.9108,34.9339 C170.8719,36.3817 170.2424,38.5675 170.454,40.9158 C170.6096,42.6329 171.5783,43.9286 173.2377,44.7364 C175.1384,45.6632 177.0933,45.6055 179.0657,45.3554 C180.1376,45.2208 181.0941,45.2855 182.1257,45.6544 C182.9703,45.9569 184.0369,46.1755 184.8535,45.9255 C187.1494,45.2295 188.8105,46.3119 190.4367,47.5656 C191.4386,48.3402 191.9387,49.4016 191.902,50.7375 C191.8408,52.7764 191.8863,54.8187 191.8898,56.8593 C191.8915,57.4992 191.9352,58.1008 192.8078,58.127 C193.5964,58.1532 193.8744,57.8909 193.8936,56.8628 C193.9233,55.2628 193.9775,53.6576 193.8709,52.0647 C193.7397,50.1115 194.4881,48.6497 196.0024,47.4992 C196.3521,47.2334 196.6791,46.9309 196.9921,46.6196 C198.5098,45.1124 199.0746,43.2274 198.8123,41.1763 C198.7197,40.4559 198.1689,39.6149 197.5726,39.1742 C196.3049,38.2405 194.7294,37.9939 193.1819,37.91 C191.9282,37.8436 191.2218,38.5272 191.1816,39.8107 C191.1554,40.6238 191.2585,41.4631 191.4614,42.2517 C191.6852,43.1242 191.3267,43.4547 190.4629,43.7135 C190.1552,43.147 189.8142,42.6521 189.6009,42.1066 C189.127,40.8948 188.877,40.72 187.667,41.0784 C187.1948,41.2183 186.7647,41.5523 186.2926,41.6117 C185.9936,41.6502 185.5617,41.4124 185.3606,41.1623 C185.2452,41.0172 185.3781,40.4839 185.5652,40.3265 C185.9796,39.9838 186.4744,39.7058 186.9798,39.5169 C187.597,39.2879 188.2615,39.1969 188.8945,39.0116 C189.6026,38.8035 190.5031,37.59 190.4647,36.8696 C190.4279,36.1177 189.9611,35.6596 189.2739,35.4515 C187.938,35.0476 186.7997,35.8257 185.6071,36.1684 C185.1805,36.2926 184.8465,36.8609 184.544,37.2805 C182.8444,39.6271 180.7094,41.2235 177.6791,41.2043 C176.7489,41.1991 175.9358,41.2865 175.3203,42.0838 C175.1752,42.2727 174.8762,42.3444 174.6978,42.4423 C173.9896,42.0768 173.8497,41.6222 174.175,41.026 C174.6838,40.0905 175.392,39.4942 176.5408,39.5274 C177.3889,39.5502 178.2387,39.4855 179.3945,39.4505 C178.9398,38.8315 178.7387,38.4433 178.4345,38.1705 C178.0708,37.8436 177.5585,37.6739 177.228,37.326 C177.0094,37.0969 176.8748,36.6493 176.9325,36.3415 C176.9674,36.1632 177.4658,35.9464 177.7368,35.9691 C178.1547,36.0023 178.6111,36.1474 178.9521,36.387 C179.4854,36.7612 179.9103,37.2875 180.4279,37.6862 C180.7041,37.8978 181.2689,38.1863 181.3826,38.0849 C182.0138,37.5096 182.6555,36.8888 183.0874,36.1614 C183.4844,35.4917 182.9913,34.9182 182.444,34.4688 C182.1904,34.259 181.8302,34.0579 181.7515,33.7851 C181.6449,33.4127 181.6606,32.9248 181.832,32.5926 C181.9054,32.4492 182.5384,32.4667 182.8391,32.5943 C183.2326,32.7622 183.6103,33.0577 183.8813,33.3917 C184.5685,34.2432 185.3501,34.4566 186.359,34.0089 C186.7017,33.8568 187.1057,33.8218 187.4886,33.7816 C188.2772,33.6994 188.8228,33.3375 189.0815,32.5611 C189.1672,32.3041 189.2756,31.9998 189.4732,31.846 C189.739,31.6396 190.2181,31.3599 190.4,31.4648 C190.7112,31.6449 190.8896,32.0873 191.0679,32.4475 C191.1204,32.5524 191.0155,32.7727 190.9298,32.9073 C190.4262,33.7047 190.7969,34.2415 191.4194,34.7416 C191.9579,35.1735 192.4073,35.7645 193.0053,36.053 C193.5474,36.3136 194.0562,35.9376 194.3203,35.3571 C194.5266,34.9129 194.6927,34.4286 194.99,34.0527 C195.1596,33.8393 195.6422,33.64 195.8328,33.7344 C196.1178,33.8778 196.3399,34.2625 196.45,34.5912 C196.5252,34.8133 196.3976,35.1298 196.3049,35.3833 C196.0199,36.1649 196.2717,36.5968 197.0533,36.9028 C198.1846,37.3452 199.2565,37.91 199.9367,39.0116 C200.2934,39.5869 200.8092,39.6219 201.3618,39.2547 C201.638,39.0728 201.9108,38.8857 202.1888,38.7073 C203.2467,38.0289 203.2555,38.0324 204.0266,39.3771 C203.6821,39.6778 203.3674,40.1394 202.946,40.2881 C201.0278,40.9665 200.3546,42.3164 200.3126,44.2765 C200.2951,45.0214 200.2986,45.5408 200.9036,45.9744 C201.6398,46.5025 202.2028,47.1425 202.2938,48.1321 C200.734,49.6114 200.3563,47.3785 199.0799,47.1967 M165.0929,58.1637 C163.792,56.8768 163.7465,56.8558 164.4494,55.3747 C164.8254,54.5809 164.6995,53.9759 164.063,53.4775 C163.458,53.0037 162.797,52.5997 162.1518,52.1801 C160.5903,51.1589 160.4277,50.435 161.5555,48.961 C162.0207,48.356 162.6327,47.8629 163.1747,47.3138 C164.8708,45.6037 166.3204,43.7537 166.5495,41.2358 C166.5949,40.7427 166.6107,40.2408 166.5722,39.7495 C166.0861,33.5613 168.4169,28.8017 173.7203,25.5144 C178.9696,22.262 184.6279,20.3666 190.8301,21.0083 C198.1007,21.7619 204.5337,24.5124 209.0625,30.4978 C212.2519,34.7101 213.4951,39.5152 212.2868,44.8483 C211.5227,48.2161 210.0242,51.1309 207.7825,53.7276 C206.7771,54.8921 205.8381,56.1371 205.0425,57.4503 C203.4111,60.1396 203.4775,63.0352 204.4497,65.9081 C205.1212,67.8875 205.9937,69.7969 206.7736,71.7379 C206.8575,71.9424 206.9502,72.1435 207.0114,72.3551 C207.4118,73.7068 207.0953,74.1841 205.6737,74.2698 C203.3604,74.4097 201.0435,74.4814 198.7337,74.6387 C194.2241,74.95 189.7163,75.3102 185.2067,75.6337 C183.2326,75.7753 183.0262,75.6442 182.4877,73.8134 C182.131,72.6017 181.8302,71.3724 181.5452,70.1414 C181.1902,68.6079 180.4803,67.9172 178.8664,68.0536 C176.7296,68.2337 174.6069,68.5974 172.4859,68.9279 C170.9331,69.1692 169.4119,69.1832 167.9081,68.6796 C166.2574,68.1271 165.6,67.1916 165.7609,65.4413 C165.8413,64.5652 166.0424,63.6997 166.212,62.8341 C166.3694,62.0333 166.3431,61.2517 165.7031,60.6851 C164.8971,59.9735 164.6802,59.1551 165.0929,58.1637" id="Fill-10"></path>
        </g>
    </g>
</svg>