<?xml version="1.0" encoding="UTF-8"?>
<svg width="176px" height="44px" viewBox="0 0 176 44" version="1.1" xmlns="http://www.w3.org/2000/svg" xmlns:xlink="http://www.w3.org/1999/xlink">
    <!-- Generator: Sketch 42 (36781) - http://www.bohemiancoding.com/sketch -->
    <title>Group 2</title>
    <desc>Created with Sketch.</desc>
    <defs></defs>
    <g id="Symbols" stroke="none" stroke-width="1" fill="none" fill-rule="evenodd">
        <g id="Header-w/-search" transform="translate(-33.000000, -19.000000)" fill="#00BCD4">
            <g id="Header">
                <g id="Group-2" transform="translate(33.000000, 19.000000)">
                    <g id="Icon">
                        <path d="M31.437555,21.0814368 C31.0757512,21.3811914 30.6588902,21.6598145 30.3324803,22.0206158 C30.1130384,22.263237 29.919552,22.6146464 29.8959561,22.9308367 C29.8298876,23.7901854 29.8566296,24.6573607 29.8534835,25.5214053 C29.852697,25.8336823 30.0406776,25.950297 30.3356264,25.9510797 C30.7422624,25.9518623 30.9255239,25.818812 31.0010308,25.3226124 C31.0922683,24.7246685 31.4013746,24.2613402 31.8245277,23.8707983 C32.1123977,23.6054802 32.4490326,23.3879038 32.7793752,23.1703273 C33.4668024,22.7187388 33.9324282,22.1051419 34.2218713,21.3412763 C34.3603006,20.9773445 34.5278314,20.6212391 34.7213178,20.2831347 C35.1515498,19.5333568 35.3167211,18.7914055 34.8904218,17.9672759 C34.7283966,17.6549989 34.6922162,17.2738488 34.6222151,16.9193088 C34.5844616,16.7275597 34.6230016,16.5193751 34.580529,16.3291913 C34.4342344,15.6780273 34.3225471,14.9509462 33.6657945,14.6316254 C33.2103936,14.4109183 32.9233102,14.1056852 32.6417324,13.724535 C32.2028487,13.1297217 31.6255356,12.6390007 30.8649611,12.6390007 C30.0202279,12.6397834 29.2738109,12.4425558 28.5234612,12.0778413 C28.0059244,11.8258283 27.3727678,11.7514766 26.8874787,12.1294961 C26.4336509,12.4840362 26.0380263,12.4699485 25.5189165,12.343942 C24.7591285,12.1600194 23.9592275,12.1294961 23.3748356,12.790052 C23.0822465,13.1211126 22.7629153,13.2126825 22.3436948,13.2580762 C21.4022183,13.3606032 20.6377111,13.7621022 20.3270318,14.7427615 C20.2114119,15.107476 19.993543,15.361837 19.6663466,15.5927185 C18.7492525,16.240752 18.4661017,17.2190634 18.5612719,18.2701612 C18.631273,19.0387226 19.0670107,19.6186656 19.8134277,19.9802495 C20.6683858,20.3950535 21.5477264,20.3692261 22.4349323,20.2573073 C22.9170752,20.1970433 23.3473071,20.2260013 23.8113598,20.3911403 C24.1912538,20.5265386 24.6710371,20.6243697 25.0383467,20.5124509 C26.0710606,20.2009565 26.8182641,20.6854163 27.549737,21.2465758 C28.0004187,21.5932893 28.2253663,22.0683574 28.2088492,22.6663013 C28.1813206,23.5788702 28.2017704,24.4930043 28.2033435,25.4063559 C28.20413,25.6928054 28.2237933,25.9620367 28.6162718,25.9737765 C28.9709968,25.9855162 29.0960551,25.8681188 29.1047069,25.4079212 C29.1180779,24.6917972 29.1424603,23.9733253 29.094482,23.260332 C29.0354923,22.3861129 29.3721271,21.7318182 30.0532621,21.2168351 C30.2105681,21.0978724 30.3576492,20.9624741 30.4984381,20.8231626 C31.1811462,20.148519 31.4351954,19.3048233 31.3172159,18.3867759 C31.2755298,18.0643244 31.0277728,17.6878702 30.7595661,17.4906426 C30.1893318,17.072708 29.4806683,16.9623545 28.7845892,16.9247873 C28.2206471,16.8950466 27.902889,17.2010624 27.8847988,17.7755269 C27.8730009,18.1394587 27.9194061,18.5151303 28.0106436,18.8681051 C28.1113195,19.258647 27.9500808,19.4065677 27.561535,19.5223997 C27.4231057,19.2688214 27.2697323,19.0473317 27.1737757,18.8031452 C26.960626,18.2607694 26.8481522,18.1825044 26.3038735,18.3429475 C26.0915104,18.4055594 25.898024,18.5550454 25.6856609,18.5816555 C25.5511642,18.5988738 25.3568913,18.4924335 25.2664404,18.3805147 C25.2145294,18.3155548 25.2743057,18.0768468 25.3584644,18.0064084 C25.544872,17.8530092 25.76746,17.728568 25.9947672,17.6440419 C26.2724123,17.5415148 26.5712937,17.5008171 26.8560175,17.4178563 C27.1745622,17.324721 27.5796252,16.7815625 27.5623215,16.4591111 C27.5458044,16.122572 27.3358009,15.9175179 27.0266946,15.8243826 C26.4257856,15.6435907 25.9137546,15.9918696 25.3773411,16.1452688 C25.1854278,16.2008369 25.0352005,16.4551978 24.8991308,16.6430336 C24.1346236,17.6933487 23.1742705,18.4079074 21.8112139,18.3992983 C21.39278,18.3969503 21.0270435,18.4360828 20.7501849,18.7929708 C20.6849029,18.8774969 20.5504063,18.9095855 20.4701802,18.9534138 C20.1516356,18.7898402 20.0887132,18.5863514 20.2350078,18.319468 C20.463888,17.9007508 20.7824327,17.6338674 21.2991829,17.6487377 C21.68065,17.6589122 22.0629036,17.6299542 22.5827999,17.6143012 C22.3783021,17.3372434 22.2878511,17.1634953 22.1509949,17.041402 C21.9873967,16.8950466 21.7569434,16.8191297 21.6082892,16.6633825 C21.5099729,16.5608555 21.4494101,16.3604973 21.4753656,16.222751 C21.4910962,16.1429208 21.7152573,16.0458723 21.8371694,16.0560468 C22.0251501,16.0709171 22.2304344,16.135877 22.3838078,16.2430999 C22.6236995,16.4105868 22.8148263,16.6461642 23.0476391,16.8246082 C23.1719109,16.9193088 23.4259601,17.0484459 23.4770845,17.0030522 C23.7610219,16.7455607 24.0496784,16.4677202 24.2439513,16.1421382 C24.4224936,15.8423836 24.2006922,15.5856747 23.9545083,15.3845338 C23.8404614,15.2906159 23.6784362,15.2006113 23.6430424,15.078518 C23.595064,14.9118138 23.6021428,14.6934547 23.6792228,14.5447513 C23.712257,14.4805741 23.9969809,14.4884006 24.1322641,14.545534 C24.3092333,14.6206683 24.4791238,14.752936 24.601036,14.902422 C24.9101423,15.2835721 25.2617212,15.3790553 25.715549,15.1786971 C25.8697089,15.1106066 26.0513973,15.0949537 26.2236474,15.0769527 C26.5783724,15.0401682 26.8237698,14.8781598 26.9401763,14.5306636 C26.9787162,14.4156142 27.0274811,14.2794333 27.116359,14.2105601 C27.2359116,14.1182075 27.4514208,13.9929837 27.5332199,14.0399426 C27.6732222,14.1205555 27.7534483,14.3185657 27.8336744,14.4797914 C27.8572703,14.5267504 27.8100785,14.6253642 27.7715385,14.6856282 C27.5450179,15.0425162 27.7117622,15.2827894 27.9917669,15.5066271 C28.2340182,15.6999414 28.4361564,15.9644768 28.7051496,16.0936139 C28.948974,16.2102287 29.1778542,16.0419591 29.2966202,15.7821196 C29.3894308,15.5833267 29.4641511,15.3665329 29.5978612,15.1982633 C29.6741546,15.1027801 29.8912369,15.0135581 29.9769687,15.0558212 C30.1051731,15.1199984 30.2050624,15.2921812 30.2546138,15.4393193 C30.2884346,15.5387157 30.2310179,15.6803752 30.1893318,15.7938593 C30.0611274,16.1437035 30.1743877,16.3370178 30.5259667,16.4739814 C31.0348516,16.6719916 31.5169945,16.9247873 31.8229547,17.4178563 C31.9834068,17.6753478 32.2154332,17.6910008 32.4639767,17.5266445 C32.5882484,17.445249 32.7109471,17.3615055 32.8360054,17.2816753 C33.311856,16.9780074 33.3157887,16.9795727 33.6626484,17.5814299 C33.507702,17.7160456 33.3661266,17.9226649 33.1765729,17.9891901 C32.3137494,18.292858 32.0109354,18.8970631 31.9920586,19.7744128 C31.9841933,20.1078213 31.9857664,20.3402681 32.2579058,20.5343651 C32.5890349,20.7707251 32.8422976,21.0571747 32.8831972,21.5001541 C32.1816124,22.1622752 32.0117219,21.1628323 31.437555,21.0814368 M16.1497708,25.9902121 C15.5645925,25.4141824 15.5441427,25.4047906 15.8603277,24.7418868 C16.0294317,24.3865641 15.9728015,24.1157675 15.6865046,23.8927125 C15.4143652,23.6806145 15.1170569,23.4998226 14.8268273,23.3119868 C14.124456,22.8549197 14.0513087,22.530903 14.5586205,21.8711298 C14.7678375,21.6003332 15.043123,21.3796261 15.2869474,21.1338743 C16.0498815,20.3684435 16.7019149,19.5404007 16.8049503,18.4133859 C16.8254001,18.1926789 16.8324789,17.9680586 16.8151752,17.7481342 C16.5965199,14.9783389 17.6449644,12.847968 20.03051,11.3765877 C22.3916731,9.9208603 24.9368843,9.07246865 27.7267063,9.35970087 C30.9970981,9.69702265 33.8907421,10.9281297 35.9278549,13.6071377 C37.3624857,15.4925394 37.9217085,17.6432592 37.3782163,20.030339 C37.0345026,21.5377212 36.3604464,22.8423973 35.3521149,24.0046313 C34.8998602,24.5258756 34.4774935,25.0831218 34.1196224,25.6708913 C33.3857898,26.8746056 33.415678,28.1706726 33.8529887,29.4565651 C34.1550162,30.3425239 34.5474947,31.1971767 34.8982871,32.0659173 C34.9360405,32.1574872 34.9777266,32.2474919 35.0052552,32.3421924 C35.1853706,32.9471802 35.0430086,33.1608434 34.4035597,33.1991932 C33.3629805,33.2618051 32.3208282,33.2938937 31.281822,33.3643322 C29.2533611,33.5036437 27.2256867,33.6648694 25.1972257,33.8096595 C24.3092333,33.8730541 24.2164228,33.8143554 23.9741715,32.9949218 C23.8137194,32.4525459 23.6784362,31.9023436 23.5502318,31.3513586 C23.3905662,30.6649753 23.071235,30.3558289 22.3452678,30.4168756 C21.3841281,30.4974884 20.4292807,30.6602794 19.4752198,30.8082001 C18.7767811,30.9162057 18.0925,30.9224669 17.4160841,30.6970639 C16.6735998,30.4497468 16.3778645,30.0310295 16.4502253,29.2475978 C16.4864056,28.8554906 16.5768566,28.4680792 16.65315,28.0806679 C16.7239377,27.7222146 16.7121398,27.3723705 16.4242698,27.1187921 C16.0616794,26.800254 15.9641497,26.4339742 16.1497708,25.9902121" id="Fill-10"></path>
                        <path d="M0.0182758634,21.8709732 C1.54729024,20.3448074 3.01338221,18.8812536 4.48026072,17.4169171 C4.88925633,17.0083742 5.16926102,17.3120421 5.45083877,17.5922305 C6.83749121,18.9704756 8.22335712,20.350286 9.76102333,21.880365 C8.80538934,22.1957726 7.98582505,22.0329816 7.19378932,22.0682008 C5.86612663,22.1276822 5.86062092,22.1268995 5.84724991,23.3767902 C5.82522707,25.2997591 6.33883117,27.1217662 7.03569678,28.8772482 C9.87113753,36.0165735 15.1770691,40.4448023 22.7214651,41.5389457 C34.9268381,43.3085154 43.7312553,34.5561502 45.3286978,25.3874158 C46.7011927,17.5124003 42.9345004,9.01596138 36.0507895,4.97123071 C33.1893933,3.28931774 30.1392298,2.22334963 26.791758,2.11690935 C26.1601744,2.09734312 25.6033112,2.0762116 25.5954459,1.22155875 C25.5883671,0.400559822 25.7629768,0.145416207 26.5762488,0.120371435 C28.2908843,0.0671512948 29.9748451,0.319946962 31.6006026,0.835712735 C40.4561442,3.64307514 45.9319663,9.59825233 47.4161485,18.7043749 C48.4449297,25.0093962 46.7649016,30.8542199 42.6041577,35.8631743 C39.219719,39.936863 34.8906577,42.5649987 29.6901212,43.4047812 C23.6078845,44.3862232 17.8300349,43.3953895 12.7341068,39.6363257 C8.1730192,36.2701518 5.34623028,31.8121824 4.10036671,26.3187682 C3.88171136,25.3514139 3.95879131,24.3723198 3.82193508,23.4073135 C3.66069643,22.2693416 3.48058105,22.1331607 2.3267415,22.0697661 C1.61571835,22.0306337 0.888964605,22.1957726 0.0182758634,21.8709732" id="Fill-5"></path>
                    </g>
                    <g id="Logo" transform="translate(62.000000, 7.000000)">
                        <path d="M20.3141539,16.2362946 C20.3136141,20.0981671 20.3141539,23.9600396 20.3136141,27.821912 C20.3136141,28.1435968 20.3109152,28.4652816 20.3033581,28.7869663 C20.2963408,29.1031333 20.1646314,29.3183256 19.8272612,29.3194291 C18.6132681,29.3238433 17.3987352,29.3243951 16.1847421,29.3194291 C15.8381954,29.3177738 15.7318563,29.0816141 15.7280778,28.7726202 C15.7232196,28.3129917 15.7210605,27.8533632 15.7205207,27.3937347 C15.7199809,24.6812094 15.7205207,21.968684 15.7199809,19.2561586 C15.7199809,18.9802712 15.7102646,18.7043837 15.7183615,18.429048 C15.7318563,17.9881799 15.5780155,17.7216726 15.1002992,17.7481578 C14.9205484,17.7586416 14.7402577,17.7448472 14.5605068,17.7448472 C11.6369913,17.7448472 8.71347566,17.7448472 5.79049987,17.7459507 C5.56540644,17.7459507 5.34031301,17.7503649 5.11575938,17.757538 C4.78594623,17.76747 4.63426457,17.9605912 4.6250881,18.2817242 C4.61537183,18.6034089 4.61375246,18.9250937 4.61321266,19.2467784 C4.61267287,22.1430449 4.61321266,25.039863 4.61159329,27.9361294 C4.61159329,28.2572624 4.60943412,28.579499 4.59054138,28.9000802 C4.57434761,29.1704499 4.40377322,29.3155667 4.15007079,29.317222 C2.93553791,29.3243951 1.72154483,29.3243951 0.507551742,29.3177738 C0.178278383,29.3155667 0.0346936074,29.1020298 0.0260569292,28.7847592 C0.0174202509,28.4630745 0.0152610814,28.1413897 0.014721289,27.8197049 C0.0141814966,20.09596 0.0136417042,12.3722151 0.0141814966,4.6484701 C0.0141814966,3.03066612 -0.0937769815,3.14157287 1.45488739,3.13936577 C2.26457597,3.138814 3.07426456,3.15260837 3.88341335,3.1366069 C4.37786318,3.12667495 4.63858291,3.29827694 4.617531,3.84894829 C4.59324035,4.49176604 4.61375246,5.13568733 4.61375246,5.77960863 C4.61375246,8.07830284 4.60457599,10.376997 4.6180708,12.6756912 C4.62346872,13.5899822 4.64614,13.6148121 5.52276284,13.6181228 C8.6260293,13.62971 11.7292957,13.62971 14.8325622,13.6192263 C15.6908321,13.6159157 15.7113442,13.5910858 15.7156626,12.6618969 C15.7269982,10.0415179 15.7194411,7.42113894 15.7194411,4.80075998 C15.7194411,4.47852344 15.7394134,4.15573513 15.7172819,3.83570569 C15.6789567,3.27399885 15.9699048,3.12943383 16.4557179,3.13715867 C17.4899601,3.1520566 18.5247422,3.12612318 19.5589844,3.14709062 C20.2709705,3.16143677 20.295801,3.18847374 20.308756,3.96151036 C20.3276487,5.11030569 20.3141539,6.26020457 20.3141539,7.40955167 L20.3141539,16.2362946" id="Fill-1"></path>
                        <path d="M113.961332,12.7473116 C113.961332,15.4140397 114.022869,18.0818713 113.944599,20.7458405 C113.86417,23.4721602 112.883907,25.838171 110.831616,27.6612352 C109.760128,28.6130469 108.494315,29.2233099 107.127561,29.5433394 C104.999159,30.0421439 102.828654,30.0846305 100.717526,29.5300968 C97.3497613,28.6450498 95.1889723,26.4269148 94.3004741,22.9672862 C94.0840173,22.1247259 93.9609447,21.2678195 93.9620242,20.3844279 C93.9695813,15.0057263 93.9512284,9.62702461 93.9420519,4.24777118 C93.9415121,4.06403014 93.9463703,3.8802891 93.952308,3.69654806 C93.9614844,3.37982927 94.0958928,3.16187819 94.4278651,3.15967109 C95.6418582,3.15194624 96.8569308,3.15415334 98.0709239,3.15415334 C98.4093737,3.15470512 98.5448616,3.35665473 98.5486402,3.67833949 C98.5529585,4.04582157 98.5567371,4.41385542 98.5567371,4.7813375 C98.5567371,9.5172214 98.5561973,14.2531053 98.5567371,18.9884374 C98.5567371,19.8607935 98.6344672,20.7160446 98.8028824,21.5823312 C99.4312007,24.8096626 102.301277,26.2001353 105.133028,25.6450497 C107.280862,25.2240455 108.629803,23.8832325 109.114536,21.6678563 C109.271616,20.9477901 109.385512,20.232138 109.385512,19.4900008 C109.384433,14.6172767 109.39091,9.74400088 109.407644,4.87072503 C109.414661,2.94558243 109.173374,3.16242996 111.026481,3.14642849 C111.656419,3.14091074 112.286357,3.13760009 112.915754,3.14753204 C113.96781,3.16353351 113.978606,3.16794771 113.989941,4.19590434 C114.001817,5.39160053 113.99264,6.58674495 113.99264,7.78188937 L113.99264,12.7473116 L113.961332,12.7473116 Z" id="Fill-3"></path>
                        <path d="M78.0951508,13.9909571 C78.0951508,10.8419777 78.0902927,8.22159878 78.09731,5.60121981 C78.1005487,4.41876622 78.1113446,4.41876622 79.2146802,4.21019531 C80.0961612,4.04411106 80.9738636,3.8543005 81.8602027,3.7180121 C82.4442581,3.6280728 82.590002,3.75884345 82.5991785,4.37352068 C82.6196906,5.79875522 82.5937806,7.22398977 82.6142927,8.64922432 C82.6261681,9.45481566 82.6709709,9.50116475 83.471483,9.50999315 C85.1356629,9.52820172 86.7998429,9.5066825 88.4640228,9.52102865 C89.3697945,9.52930527 89.3805903,9.54696207 89.4000228,10.4314572 C89.4162166,11.1669732 89.3876076,11.9030409 89.4065003,12.6385568 C89.4199952,13.1781926 89.1727702,13.3602784 88.6713031,13.3547606 C87.3671647,13.3382074 86.0624865,13.3497946 84.7583481,13.3508982 C84.308701,13.3508982 83.8579744,13.3371038 83.4088671,13.3558642 C82.6801474,13.38566 82.6288671,13.4193183 82.6153723,14.1437987 C82.5921612,15.3389431 82.6045764,16.5346393 82.6078152,17.7297837 C82.6126733,19.2471647 82.618611,20.7639939 82.636964,22.280823 C82.6418221,22.6472016 82.6590955,23.0202014 82.7368256,23.3749927 C83.1222373,25.1401205 83.8806456,25.7597637 85.6446872,25.8044575 C86.7750124,25.832598 87.8913031,25.781283 88.9557737,25.3271722 C89.3195938,25.1715717 89.5544035,25.2753054 89.6359121,25.7001721 C89.7897529,26.509074 89.9419744,27.3196314 90.1303619,28.1213603 C90.2415592,28.5958867 90.010528,28.8199073 89.6359121,28.9424013 C89.0378221,29.1366261 88.4364934,29.3325062 87.8243688,29.4693463 C86.2314415,29.8241376 84.618002,29.8208269 83.0266941,29.5245238 C79.8246456,28.9280552 78.6009363,26.4042368 78.3213238,23.925664" id="Fill-4"></path>
                        <path d="M68.1089916,19.4090003 C68.1084518,16.6501258 68.107912,13.8918031 68.1089916,11.1329286 C68.1089916,10.8112439 68.1127701,10.4895591 68.1230262,10.1678744 C68.1349016,9.79597808 68.3038566,9.54326518 68.6887286,9.53885098 C69.8573791,9.52616016 71.0265694,9.52616016 72.1957598,9.53112613 C72.4527009,9.53278145 72.6124795,9.69279617 72.6313722,9.95544102 C72.6513445,10.2302249 72.6470262,10.5066641 72.647566,10.7825516 C72.647566,16.5298389 72.647566,22.2765744 72.6470262,28.0238617 C72.6470262,28.2534 72.6367701,28.4834901 72.6437874,28.7135803 C72.6562027,29.0987191 72.5136975,29.3238433 72.1050746,29.3227398 C70.9353445,29.3177738 69.7661542,29.322188 68.5969639,29.3161185 C68.2655314,29.3144631 68.120867,29.11141 68.1176282,28.7880699 C68.1138497,28.420036 68.1095314,28.052554 68.1095314,27.6845201 C68.1089916,24.9261974 68.1089916,22.1673229 68.1089916,19.4090003" id="Fill-6"></path>
                        <path d="M70.3609514,6.47192059 C68.7280795,6.47081704 67.7445777,5.5311444 67.6290622,3.7467044 C67.5356781,2.3049166 68.9278026,0.942584393 70.377685,0.948653917 C71.8124532,0.954171666 73.1694913,2.27953496 73.1192906,3.76656829 C73.0690899,5.2828457 72.1255328,6.50226821 70.3609514,6.47192059" id="Fill-7"></path>
                        <path d="M58.2894123,22.8494822 C57.4025334,24.8419414 55.4306718,26.0839867 53.3179244,25.8897619 C52.6485818,25.8279631 51.9776199,25.8241007 51.3109763,25.7468522 C50.5946717,25.664086 50.5455506,25.6342901 50.5239589,24.9230523 C50.5007479,24.1444979 50.5174814,23.36484 50.5174814,22.5851821 C50.5174814,20.1093681 50.5450108,17.6335542 50.5012877,15.1588438 C50.4877929,14.4023604 50.721523,13.9642511 51.4081389,13.6861566 C52.7263119,13.1514867 54.0509624,12.8540801 55.4668379,13.2204586 C56.8891908,13.5884924 57.8235714,14.5121636 58.3336753,15.8744958 C58.7520144,16.9923918 58.986824,18.1588439 58.8977583,19.3390904 C58.9630732,20.5789286 58.7800836,21.7459325 58.2894123,22.8494822 M62.4096476,14.0420514 C61.1659659,11.1220587 58.9501182,9.56108751 55.8840974,9.22781547 C54.0617583,9.02917651 52.3252462,9.41707426 50.5180212,10.2458401 L50.5180212,8.77260118 C50.5180212,6.38176058 50.518561,3.99147174 50.5180212,1.60063113 C50.5180212,1.27894637 50.5110039,0.957261605 50.5104641,0.635576843 C50.5093846,0.212917275 50.2729555,0.06007563 49.9004987,0.115804894 C49.1469486,0.228918747 48.3933984,0.346446799 47.6447063,0.491563596 C46.1689139,0.779038315 46.1683741,0.787866713 46.1678344,2.26772698 C46.1678344,10.5884924 46.1683741,18.9092577 46.1689139,27.2300231 C46.1689139,27.5517079 46.1824087,27.8739444 46.1737721,28.1950774 C46.1629762,28.5829752 46.3697167,28.7898907 46.7038482,28.8858996 C46.961869,28.960941 47.226907,29.0100489 47.4876267,29.0740548 C48.9758344,29.4393298 50.4937306,29.5474777 52.011087,29.7124584 C53.9305887,29.921581 55.7658828,29.7268045 57.5666303,29.1088166 C60.2855645,28.1752135 62.0301735,26.1711671 62.8657722,23.4586417 C63.8368587,20.3041447 63.7213431,17.1209553 62.4096476,14.0420514" id="Fill-8"></path>
                        <path d="M36.2585955,23.4265836 L36.2537374,23.4265836 C36.2537374,24.0699531 36.2494191,24.7133227 36.2553568,25.3566922 C36.2591353,25.817976 36.0281042,26.0282022 35.5941111,26.0276505 C34.3353153,26.0270987 33.0700419,26.1065543 31.8209623,25.994544 C30.8617512,25.9084671 29.9565194,25.4830486 29.6234675,24.4302621 C29.3260419,23.4911413 29.2796197,22.5426402 29.9495021,21.6906998 C30.308464,21.2338302 30.7931976,21.0037401 31.2995228,20.824965 C32.6074398,20.3625776 33.9585402,20.4061678 35.2966855,20.6174976 C36.2272876,20.7642697 36.2359243,20.8321381 36.2564364,21.7718107 C36.2688516,22.3230338 36.2585955,22.8748087 36.2585955,23.4265836 M40.5542634,17.2042181 C40.552644,16.2397156 40.4754537,15.2884557 40.2957028,14.3333334 C39.8233845,11.8183434 38.3864571,10.2286799 36.0065125,9.54282376 C33.9817512,8.95849415 31.9094883,9.10912869 29.8517997,9.3132854 C29.0529069,9.39163744 28.2621111,9.59413882 27.4783325,9.78781181 C26.8402979,9.94561943 26.7825401,10.0808043 26.8985955,10.7705229 C27.0130315,11.4464471 27.1204502,12.125682 27.2629554,12.7955367 C27.4346093,13.603887 27.4475644,13.5917479 28.184381,13.4317332 C29.8928239,13.0603887 31.6012668,12.7491877 33.3642287,13.0305929 C35.4553845,13.3649684 36.3697928,14.9463553 36.2402426,16.9939919 C36.2191907,17.3261604 36.0540142,17.4927964 35.729599,17.4867269 C35.5498481,17.4834162 35.36308,17.4961071 35.191426,17.4519651 C33.5850038,17.0386857 31.9785817,17.1771812 30.3824156,17.4861751 C28.5282287,17.8464841 26.8106093,18.4997856 25.7823048,20.2726383 C24.9726162,21.6691806 24.8268723,23.1722154 25.1113429,24.7767768 C25.4017512,26.4122376 26.1051007,27.7061497 27.5236751,28.5569866 C28.6723533,29.2461534 29.923592,29.5860467 31.2433844,29.6235674 C33.8943049,29.6986088 36.5376682,29.7052301 39.1551215,29.1142792 C40.5348309,28.8019746 40.552644,28.8709465 40.5548032,27.4098466 C40.5575021,25.6171299 40.555343,23.8238615 40.5548032,22.0311449 C40.5548032,20.4221693 40.5569623,18.8131937 40.5542634,17.2042181" id="Fill-9"></path>
                    </g>
                </g>
            </g>
        </g>
    </g>
</svg>